<svg width="204" height="29" viewBox="0 0 204 29" fill="none" xmlns="http://www.w3.org/2000/svg">
<g clip-path="url(#clip0_12416_33588)">
<path d="M46.2207 26.7698C45.7107 26.2398 44.6307 26.6198 43.7507 26.5298C43.6767 26.522 43.606 26.4951 43.5456 26.4518C43.4851 26.4085 43.4369 26.3503 43.4056 26.2827C43.3744 26.2152 43.3612 26.1408 43.3674 26.0666C43.3735 25.9925 43.3988 25.9212 43.4407 25.8598L55.1707 7.7498C55.0507 7.4498 54.8407 7.0798 54.5207 7.0398C54.2007 6.9998 54.0007 7.4098 53.6607 7.5898C52.9007 7.9798 51.6607 7.1098 50.2607 6.3498L49.8407 6.1198C48.9577 5.59201 47.9381 5.33797 46.9107 5.3898H46.7007C46.5448 5.42766 46.3912 5.47441 46.2407 5.5298C45.7695 5.74885 45.2466 5.83197 44.7307 5.7698C44.1621 5.66866 43.6365 5.40062 43.2207 4.9998C43.2207 4.9998 43.2207 4.9998 43.2207 4.9498L42.9107 4.6598C42.3823 4.12646 41.9191 3.53231 41.5307 2.8898C41.4005 2.68171 41.3177 2.44748 41.2884 2.20377C41.259 1.96006 41.2837 1.71287 41.3607 1.4798L41.5907 0.789799C41.6227 0.699128 41.6284 0.601261 41.6072 0.507486C41.5859 0.41371 41.5386 0.327847 41.4707 0.259799C41.3907 0.170818 41.2915 0.101179 41.1806 0.0561384C41.0698 0.0110979 40.9501 -0.00816665 40.8307 -0.000200841C38.0007 0.169799 35.7207 0.459799 34.0007 0.719799C34.0007 0.719799 30.1207 1.3098 30.1607 2.1998C30.1607 2.3798 30.4007 2.5698 30.3307 2.8698C30.3307 2.9298 30.2507 3.1198 29.8707 3.3598C29.4823 3.59916 29.0369 3.73036 28.5807 3.7398C27.5207 3.7398 27.2007 2.6298 26.4007 2.6198C25.4007 2.6198 25.3007 4.2198 24.1407 4.8998C22.6107 5.7998 21.0007 3.9998 17.4707 3.0998C14.8534 2.5402 12.1416 2.5984 9.55071 3.2698C8.43244 3.51124 7.3751 3.97803 6.44323 4.64169C5.51136 5.30534 4.72451 6.15194 4.13071 7.1298C3.06071 9.1298 3.44071 11.9998 5.35071 13.2398C6.28695 13.7864 7.34686 14.0858 8.43071 14.1098C10.2907 14.3298 12.0607 14.6198 13.5207 14.9198C12.7907 15.9198 12.1407 16.7998 11.5807 17.6098C11.2007 17.4398 10.8107 17.2698 10.4307 17.1398C8.98445 16.4274 7.35335 16.1794 5.76071 16.4298C2.76071 17.1098 -0.239293 20.2098 0.0107073 23.5398C0.170707 25.7998 1.83071 28.3698 3.78071 28.5398C4.80514 28.48 5.77399 28.0541 6.51071 27.3398C7.83742 26.2397 8.92332 24.878 9.70071 23.3398C10.0007 22.8298 10.2407 22.3998 10.4007 22.0898C11.6438 22.7538 12.846 23.4918 14.0007 24.2998C15.9207 25.6398 16.1407 26.0498 17.1507 26.4598C18.0648 26.7941 19.0429 26.9165 20.0113 26.8177C20.9796 26.719 21.9129 26.4017 22.7407 25.8898C24.4302 24.884 25.7438 23.3526 26.4807 21.5298C27.2994 19.596 27.3566 17.424 26.6407 15.4498C25.3807 12.4498 21.9207 10.5798 18.0107 10.7698C19.4219 9.24716 20.9945 7.88247 22.7007 6.6998C23.2107 6.3498 23.9907 5.8698 24.7907 5.4198C24.8989 5.32661 25.0124 5.2398 25.1307 5.1598C25.4386 4.9921 25.7805 4.89637 26.1307 4.8798C27.3607 4.8798 29.2007 10.6598 30.3907 11.7298C30.9007 12.1998 30.8807 11.9598 31.3007 12.3098C34.5807 15.0398 33.8507 23.1698 34.3907 25.8198C34.5208 26.2341 34.7022 26.6305 34.9307 26.9998C35.0385 27.2009 35.1984 27.3692 35.3938 27.4871C35.5891 27.605 35.8126 27.6681 36.0407 27.6698H37.9007H46.2107C46.2352 27.6698 46.2595 27.6649 46.282 27.6552C46.3045 27.6455 46.3248 27.6314 46.3417 27.6136C46.3585 27.5958 46.3716 27.5748 46.38 27.5518C46.3884 27.5288 46.3921 27.5043 46.3907 27.4798C46.4191 27.3564 46.4186 27.228 46.3891 27.1048C46.3596 26.9817 46.302 26.867 46.2207 26.7698ZM8.35071 22.9198C6.17071 26.7498 4.79071 27.3398 4.23071 27.5098C3.99076 27.5974 3.73153 27.6181 3.48071 27.5698C3.00867 27.3591 2.61319 27.0079 2.34829 26.564C2.0834 26.1201 1.96201 25.6053 2.00071 25.0898C2.11071 23.0898 5.00071 21.3398 7.50071 21.4298C8.00683 21.4525 8.50938 21.5262 9.00071 21.6498C8.90071 21.9198 8.66071 22.3698 8.35071 22.9198ZM23.5007 20.7198C23.8207 22.3998 22.9107 24.4598 21.7807 24.7198C21.0007 24.8798 20.3207 24.0998 19.3207 23.1398C17.3322 21.2266 15.1115 19.5703 12.7107 18.2098L14.1007 15.9198C14.2107 15.7298 14.3707 15.4698 14.5707 15.1698C15.2407 15.3198 15.8207 15.4598 16.2607 15.5898C17.6007 15.9398 22.8807 17.4398 23.5007 20.7198ZM16.9107 10.6498C15.1289 10.5807 13.3654 10.2643 11.6707 9.7098C10.5807 9.45957 9.61397 8.83278 8.94071 7.9398C8.42071 7.1498 7.94071 5.7098 8.62071 4.7498C9.48071 3.5398 11.5807 3.9998 12.0007 3.9998C12.794 4.17222 13.5409 4.51327 14.1907 4.9998C15.8097 6.1097 17.299 7.39776 18.6307 8.8398C18.0268 9.41333 17.4527 10.0175 16.9107 10.6498ZM49.2007 7.1398L49.7407 7.1998H49.9907L49.6207 7.7798L40.2407 22.9998L40.0507 22.8598C39.9278 22.7531 39.8109 22.6396 39.7007 22.5198C39.1672 21.7315 38.8626 20.8108 38.8207 19.8598L45.8807 8.4098L46.5407 7.3498L46.8907 7.2698C47.6521 7.12847 48.4283 7.08478 49.2007 7.1398ZM45.4607 7.7298L45.8307 7.5798L45.0807 8.7798L38.6807 19.1098C38.6807 18.9998 38.6807 18.8898 38.6107 18.7798C38.5407 18.6698 38.5407 18.4498 38.4607 18.1098C38.2307 17.1598 37.9707 16.2198 37.6707 15.2998L41.9107 8.4498L42.1307 8.0998C42.4516 8.22679 42.7878 8.31085 43.1307 8.3498C43.6607 8.42063 44.1998 8.33368 44.6807 8.0998L45.4607 7.7298ZM41.0907 7.4998C41.2185 7.59777 41.3521 7.68793 41.4907 7.7698L41.6907 7.8898L41.5107 8.1798L37.5107 14.6998L37.4107 14.4198C37.3512 14.2195 37.2811 14.0226 37.2007 13.8298C36.9007 12.9898 36.5707 12.1698 36.2007 11.3598L39.6107 5.8598C39.7107 6.0198 39.8207 6.1898 39.9507 6.3598C40.2819 6.78564 40.6649 7.16858 41.0907 7.4998ZM34.0007 7.1598C34.8898 6.90065 35.6962 6.41475 36.3407 5.7498C37.6007 4.3998 37.7407 2.6698 38.2707 2.7498C38.6207 2.7498 38.6507 3.5498 38.9607 4.5598C39.0241 4.76004 39.0975 4.95695 39.1807 5.1498C39.1807 5.2298 39.2507 5.3098 39.2907 5.3998L35.9007 10.8698L35.7807 10.6098L35.5407 10.0998C35.0907 9.0698 34.5807 8.0998 34.0007 7.1598ZM41.3607 23.5098C41.103 23.4396 40.8546 23.3389 40.6207 23.2098L50.1607 7.8798L50.4907 7.3498C50.804 7.40478 51.1033 7.5215 51.3711 7.69317C51.6389 7.86485 51.8699 8.08805 52.0507 8.3498C52.6207 9.4598 50.9607 11.7098 48.8707 14.7098C46.6007 17.9998 42.6807 23.8698 41.3907 23.5098H41.3607Z" fill="#ffffff"/>
<path d="M65.3804 19.6702C66.5704 21.9502 68.8004 23.0902 72.0904 23.0902C72.9101 23.1138 73.7254 22.9603 74.4804 22.6402C74.7556 22.5603 74.9994 22.3973 75.1784 22.1736C75.3574 21.9498 75.4629 21.6762 75.4804 21.3902C75.4572 20.9626 75.3026 20.5525 75.0378 20.216C74.7729 19.8796 74.4106 19.6331 74.0004 19.5102C73.6004 19.3402 72.6404 19.0302 71.1304 18.5802C69.2773 18.2004 67.5277 17.4262 66.0004 16.3102C65.5365 15.819 65.181 15.2358 64.9571 14.5983C64.7331 13.9609 64.6457 13.2836 64.7004 12.6102C64.6502 11.7474 64.8191 10.886 65.1916 10.1061C65.564 9.32627 66.1278 8.65338 66.8304 8.15015C68.5092 7.07698 70.4803 6.55275 72.4704 6.65016C74.1551 6.63775 75.8348 6.83595 77.4704 7.24015C79.0204 7.63015 79.7904 8.05016 79.7904 8.51016L78.8604 13.1302H78.3704C77.9153 12.0893 77.1513 11.2135 76.1818 10.6214C75.2123 10.0294 74.0842 9.74963 72.9504 9.82015C70.5604 9.82015 69.3704 10.3702 69.3704 11.4602C69.3704 11.9902 69.7304 12.4602 70.4504 12.8202C71.4587 13.3088 72.5098 13.7038 73.5904 14.0002C75.5317 14.4223 77.3704 15.2243 79.0004 16.3602C79.5014 16.8405 79.8895 17.426 80.1368 18.0745C80.3841 18.7229 80.4843 19.4182 80.4304 20.1102C80.4645 21.4074 80.0114 22.6704 79.1604 23.6502C78.3141 24.6094 77.2212 25.3184 76.0004 25.7002C74.5878 26.1307 73.117 26.3399 71.6404 26.3202C69.9128 26.3317 68.1902 26.1336 66.5104 25.7302C64.9304 25.3402 64.1504 24.9002 64.1504 24.4002L64.9404 19.7302L65.3804 19.6702Z" fill="#ffffff"/>
<path d="M91.0004 16.5006C91.0108 18.1752 91.1478 19.8467 91.4104 21.5006C91.5854 22.9203 91.9625 24.3077 92.5304 25.6206L92.4504 26.0306C91.1692 25.8792 89.8805 25.799 88.5904 25.7906C87.3002 25.796 86.0113 25.8762 84.7304 26.0306L84.6504 25.6206C85.2232 24.3185 85.607 22.9413 85.7904 21.5306C86.0636 19.8543 86.204 18.159 86.2104 16.4606C86.2009 14.7856 86.0605 13.1138 85.7904 11.4606C85.5936 10.0334 85.2208 8.63612 84.6804 7.30063C84.6804 7.30063 84.6804 7.20063 84.6804 7.10063C84.6896 7.03093 84.6896 6.96032 84.6804 6.89062C85.9607 7.05313 87.2498 7.13662 88.5404 7.14062C89.8309 7.13353 91.1198 7.05005 92.4004 6.89062L92.5104 7.30063C91.9212 8.59752 91.5334 9.97673 91.3604 11.3906C91.1101 13.0823 90.9898 14.7906 91.0004 16.5006Z" fill="#ffffff"/>
<path d="M115.721 26.3492H113.801C113.562 25.7375 113.281 25.1428 112.961 24.5692C111.275 25.8056 109.22 26.4332 107.131 26.3492C104.291 26.4825 101.51 25.5113 99.3711 23.6392C98.4075 22.7516 97.6463 21.6671 97.139 20.4593C96.6317 19.2515 96.3903 17.9486 96.4311 16.6392C96.3845 15.279 96.6443 13.9257 97.1913 12.6794C97.7383 11.4331 98.5584 10.3258 99.5911 9.43919C101.701 7.61919 104.591 6.70919 108.251 6.70919C110.042 6.70154 111.828 6.9063 113.571 7.31919C115.281 7.72919 116.131 8.14919 116.131 8.56919L115.201 13.3292L114.711 13.4392C114.149 12.425 113.319 11.5845 112.313 11.0097C111.306 10.4348 110.16 10.1475 109.001 10.1792C108.134 10.1174 107.263 10.2416 106.447 10.5434C105.631 10.8452 104.89 11.3176 104.271 11.9292C103.153 13.2126 102.576 14.8793 102.661 16.5792C102.595 18.1617 103.067 19.7199 104.001 20.9992C104.478 21.5913 105.091 22.0602 105.787 22.3665C106.483 22.6728 107.242 22.8074 108.001 22.7592C108.544 22.8365 109.098 22.7863 109.619 22.6128C110.14 22.4392 110.613 22.147 111.001 21.7592C111.062 20.3105 110.841 18.8639 110.351 17.4992L110.461 17.0792C111.529 17.2488 112.609 17.3324 113.691 17.3292C114.867 17.3028 116.04 17.1925 117.201 16.9992L117.281 17.4192C116.754 18.7688 116.385 20.1748 116.181 21.6092C115.897 23.1738 115.744 24.7592 115.721 26.3492Z" fill="#ffffff"/>
<path d="M128.381 22.2399C127.339 22.2358 126.298 22.3194 125.271 22.4899C125.105 22.9768 125.014 23.4859 125.001 23.9999C124.975 24.301 125.01 24.6041 125.105 24.8911C125.199 25.1781 125.351 25.443 125.551 25.6699L125.461 26.0799C124.384 25.9248 123.298 25.8446 122.211 25.8399C121.186 25.8426 120.163 25.9229 119.151 26.0799L119.061 25.6699C119.191 25.5299 119.311 25.3799 119.421 25.2499C119.531 25.1199 119.661 24.9299 119.801 24.7099L120.191 24.1399L120.661 23.3499C120.871 22.9799 121.051 22.6799 121.201 22.4299L121.911 21.1899C122.241 20.5999 122.521 20.1099 122.761 19.7099L130.001 6.91992H130.491L137.851 19.9999C138.271 20.6899 138.691 21.4099 139.121 22.1599C139.551 22.9099 139.861 23.4299 140.041 23.7299C140.221 24.0299 140.421 24.3499 140.641 24.7299C140.844 25.0451 141.064 25.3489 141.301 25.6399L141.191 26.0799C139.94 25.8909 138.675 25.8106 137.411 25.8399C136.03 25.8101 134.649 25.8904 133.281 26.0799L133.201 25.6999C133.386 25.4975 133.528 25.2589 133.618 24.9991C133.707 24.7393 133.742 24.4638 133.721 24.1899C133.696 23.7876 133.605 23.3922 133.451 23.0199C131.81 22.505 130.1 22.242 128.381 22.2399ZM129.001 14.9999L126.541 19.6999H131.631L129.001 14.9999Z" fill="#ffffff"/>
<path d="M158.72 12.2607C158.714 13.3411 158.468 14.4066 158 15.3807C157.51 16.4043 156.855 17.3401 156.06 18.1507C155.276 18.9573 154.423 19.6935 153.51 20.3507C152.625 20.9934 151.689 21.562 150.71 22.0507H154.4C156.237 22.066 158.049 21.6335 159.68 20.7907L160.01 21.0907L158.15 26.3507C155.336 26.0164 152.505 25.8427 149.67 25.8307C148.23 25.8307 146.44 25.9107 144.31 26.0707L143.65 22.6507C144.45 22.2907 145.25 21.8707 146.06 21.4107C146.917 20.9048 147.742 20.3471 148.53 19.7407C149.329 19.1386 150.075 18.4695 150.76 17.7407C151.397 17.0667 151.929 16.3016 152.34 15.4707C152.752 14.7111 152.979 13.8646 153 13.0007C153 10.8341 151.96 9.75073 149.88 9.75073C148.24 9.75073 146.727 10.9641 145.34 13.3907L144.85 13.3307L143.92 8.79073C143.86 8.52073 144.14 8.22073 144.74 7.89073C145.53 7.49051 146.366 7.19148 147.23 7.00073C148.336 6.74825 149.466 6.62078 150.6 6.62073C152.642 6.53579 154.666 7.02794 156.44 8.04073C157.169 8.46971 157.766 9.08954 158.168 9.83326C158.57 10.577 158.761 11.4164 158.72 12.2607Z" fill="#ffffff"/>
<path d="M171.001 26.0699L170.891 25.6599C171.475 24.7618 171.82 23.7289 171.891 22.6599C169.651 22.5599 166.731 22.5199 163.131 22.5199L162.371 19.3699C166.451 16.5833 168.494 13.2933 168.501 9.49992C168.606 8.74924 168.428 7.98634 168.001 7.35992L168.051 6.91992C169.278 7.08088 170.514 7.16437 171.751 7.16992C173.002 7.16255 174.251 7.07906 175.491 6.91992L175.661 7.35992C174.401 11.2599 171.244 15.2599 166.191 19.3599H172.001C171.925 18.5146 171.723 17.6855 171.401 16.8999L171.511 16.4899C172.676 15.5893 173.757 14.5853 174.741 13.4899C175.838 12.3174 176.792 11.0183 177.581 9.61992L177.991 9.75992C177.264 12.8421 176.928 16.0037 176.991 19.1699V19.3599H179.121V23.2699C178.121 23.1299 177.491 23.0499 177.231 23.0299C177.335 23.9506 177.596 24.8468 178.001 25.6799L177.861 26.0899C176.723 25.9164 175.573 25.8261 174.421 25.8199C173.276 25.8176 172.133 25.9011 171.001 26.0699Z" fill="#ffffff"/>
<path d="M191 25.6306L190.81 26.0706C189.788 25.912 188.755 25.8318 187.72 25.8306C186.692 25.8306 185.666 25.9108 184.65 26.0706L184.49 25.6306C185.451 19.8709 188.437 14.6436 192.91 10.8906H187.41C186.747 10.8927 186.09 11.0147 185.47 11.2506C184.945 11.426 184.444 11.6679 183.98 11.9706C183.63 12.2206 183.2 12.5306 182.71 12.9106L182.24 12.6406L183.69 6.64062C186.538 7.01335 189.408 7.19708 192.28 7.19063C194.311 7.21085 196.34 7.11737 198.36 6.91062L198.71 7.41062L196.11 10.8006C194.473 12.8157 193.145 15.0637 192.17 17.4706C191.349 19.6295 190.932 21.9209 190.94 24.2306C190.89 24.5506 190.91 25.0006 191 25.6306Z" fill="#ffffff"/>
</g>
<defs>
<clipPath id="clip0_12416_33588">
<rect width="204" height="29" fill="white"/>
</clipPath>
</defs>
</svg>
