<?xml version="1.0" encoding="UTF-8"?>
<svg id="Layer_2" data-name="Layer 2" xmlns="http://www.w3.org/2000/svg" viewBox="0 0 105.93 19.84">
  <defs>
    <style>
      .cls-1 {
        fill: #ffffff;
      }
    </style>
  </defs>
  <g id="Layer_1-2" data-name="Layer 1">
    <g>
      <path class="cls-1" d="m30.43,18.45c-.22-.02-.34-.28-.22-.47,2.72-4.2,5.44-8.39,8.16-12.59-.09-.21-.23-.47-.46-.49-.24-.03-.35.25-.6.38-.53.27-1.39-.33-2.36-.86-.1-.06-.2-.11-.29-.16-.66-.34-1.36-.6-2.04-.51-.05,0-.1.01-.15.02-.11.02-.22.06-.32.09-.32.11-.61.24-1.05.17-.39-.06-.69-.25-1.05-.57-.01-.01-.03-.02-.04-.03-.06-.06-.14-.13-.21-.2-.29-.29-.64-.69-.97-1.23-.18-.29-.23-.65-.12-.98l.16-.48c.04-.14,0-.27-.09-.37-.16-.18-.39-.17-.4-.16-1.96.12-3.56.32-4.73.5,0,0-2.7.41-2.67,1.03,0,.13.17.26.12.47-.01.05-.05.18-.32.34-.1.06-.45.26-.89.26-.74,0-.96-.77-1.52-.78-.67-.01-.77,1.12-1.58,1.59-1.08.63-2.23-.65-4.65-1.25-.57-.14-2.91-.57-5.51.12-1.53.41-3.03,1.28-3.77,2.68-.74,1.4-.48,3.39.85,4.25.61.4,1.14.49,2.14.6,1.29.15,2.53.36,3.54.56-.51.68-.96,1.31-1.35,1.88-.26-.12-.53-.24-.8-.33-1.11-.4-2.07-.75-3.25-.49C1.89,11.9-.15,14.06,0,16.37c.11,1.57,1.27,3.36,2.62,3.46.7.05,1.27-.36,1.91-.83.98-.72,1.56-1.68,2.21-2.77.21-.36.38-.66.49-.87.57.31,1.46.81,2.48,1.53,1.33.94,1.49,1.22,2.19,1.5,1.25.51,2.73.3,3.89-.39,1.68-.99,2.37-2.47,2.6-3.03.17-.42.92-2.33.11-4.23-.87-2.06-3.28-3.39-6-3.26.89-.94,1.98-1.94,3.28-2.83.36-.24.9-.58,1.45-.89.03-.02.11-.1.24-.18,0,0,.34-.2.69-.2.85,0,2.13,4.02,2.96,4.76.36.32.34.16.63.4,2.28,1.9,1.77,7.56,2.15,9.4.04.19.2.46.38.8.15.29.45.46.77.46.32,0,.77,0,1.29,0,1.99,0,5,.01,5.78.01.07,0,.13-.06.13-.13.03-.28-.05-.42-.12-.49-.36-.37-1.11-.1-1.72-.17Zm-24.62-2.51c-1.52,2.67-2.48,3.08-2.87,3.2-.19.06-.35.08-.52.04-.6-.15-1.05-1.03-1.01-1.72.08-1.38,2.1-2.61,3.83-2.55.36.02.7.07,1.05.15-.1.19-.26.5-.48.88Zm9.34,1.23c-.55.11-1.02-.43-1.71-1.1-.33-.32-2.27-2.17-4.6-3.43.29-.47.6-1,.96-1.59.08-.13.19-.31.33-.52.47.1.87.21,1.17.29.93.26,4.6,1.31,5.04,3.59.22,1.17-.41,2.6-1.19,2.76Zm1.21-5.51c.22.38.36.82.43,1.29-.11-.18-.24-.36-.37-.53-1.89-2.42-5.09-2.89-7.91-3.31-2.09-.31-3.91-.58-4.52-1.61.63.64,1.75.76,3.3.94.85.09,1.8.2,2.91.41,2.39.45,5.1.96,6.15,2.82Zm-4.6-4.25c-1.21-.12-2.18-.15-3.64-.65-1.04-.36-1.56-.71-1.9-1.23-.36-.55-.7-1.55-.22-2.22.6-.84,2.05-.55,2.38-.49.68.13,1.15.43,1.52.68.78.53,1.87,1.38,3.09,2.67-.46.43-.87.84-1.23,1.24Zm20.61-2.3c.08-.02.16-.04.24-.05.47-.09,1.05-.13,1.61-.09.12,0,.25.02.37.04.06,0,.12.02.18.03l-.25.41-6.52,10.52c-.09-.06-.13-.1-.13-.1-.03-.02-.14-.12-.25-.24-.38-.43-.44-.92-.61-1.85,0,0,0,0,0,0l4.91-7.92.46-.74Zm-3.07.52c.21.08.44.15.68.18.45.05.76-.04,1.08-.18.17-.08.35-.17.55-.26.08-.04.17-.07.26-.11l-.52.84-4.45,7.18c-.02-.08-.03-.15-.05-.23-.01-.05-.05-.23-.11-.46-.16-.66-.34-1.31-.55-1.95l2.95-4.76.15-.25Zm-1.77-1.56c.07.11.14.23.23.34.1.12.38.48.81.8.09.07.18.13.28.19.05.03.09.05.14.08l-.13.2-2.81,4.54c-.02-.07-.05-.13-.07-.2-.04-.14-.09-.28-.14-.41-.21-.58-.44-1.15-.69-1.72l2.37-3.83s0,0,0,0Zm-3.87.91c.59-.18,1.17-.49,1.63-.98.88-.94.98-2.15,1.34-2.12.25.02.26.56.48,1.26.04.13.09.26.15.4.02.06.05.12.08.18t0,0l-2.36,3.8c-.03-.06-.05-.12-.08-.18-.06-.12-.11-.24-.17-.36-.33-.68-.69-1.35-1.07-2.01h0Zm2.53,11.78c-.2-.13-.34-.29-.34-.29-.2-.55-.36-.73-.48-.72-.21.02-.27.61-.37.61-.33,0-.58-6.02-1.72-7.37-.04-.05-.39-.46-.88-1.05-.36-.44-.54-.66-.63-.77-.93-1.24-.98-2.94-.94-2.95,0,0,.04.11.11.34.18.58.36,1.24.69,1.62.08.09.1.08.11.08.08-.03-.08-.54-.12-.69-.3-1.1.26-2.57.43-2.55.13.02-.14.95.09,2.24.47,2.68,2.43,3.32,2.63,5.49.02.25.06.92.24,1.85.08.38.12.55.31,1.29.56,2.18.53,2.29.73,2.47.89.85,2.84-.08,2.87.05.03.13-1.99.85-2.74.35Zm2.59-.4c-.19-.05-.36-.13-.51-.21t0,0l6.61-10.66.23-.37c.25.07.47.16.66.28.19.12.33.26.42.44.4.77-.76,2.34-2.21,4.42-1.58,2.26-4.3,6.36-5.2,6.11Z"/>
      <g>
        <path class="cls-1" d="m43.22,7.16c.39.75,1.13,1.13,2.22,1.13.31,0,.58-.05.79-.15.21-.1.32-.24.32-.41,0-.27-.16-.47-.48-.62-.13-.05-.45-.16-.95-.31-.84-.24-1.4-.49-1.69-.75-.29-.27-.43-.67-.43-1.22,0-.65.24-1.14.71-1.47.47-.33,1.09-.5,1.86-.5.58,0,1.12.06,1.64.19.51.13.77.27.77.42l-.31,1.53h-.16c-.35-.72-.95-1.08-1.79-1.08-.79,0-1.18.18-1.18.54,0,.17.12.32.36.45s.59.25,1.04.38c.89.25,1.49.51,1.8.78s.47.68.47,1.24c0,.46-.14.85-.42,1.17-.28.32-.63.54-1.06.68s-.91.2-1.44.2c-.61,0-1.17-.06-1.7-.19-.52-.13-.78-.28-.78-.44l.26-1.55.15-.02Z"/>
        <path class="cls-1" d="m51.68,6.11c0,.53.04,1.09.14,1.67.09.58.21,1.04.37,1.36l-.03.14c-.47-.05-.9-.08-1.28-.08-.4,0-.82.03-1.28.08l-.03-.14c.16-.32.28-.77.38-1.35.09-.58.14-1.14.14-1.68s-.05-1.07-.14-1.66c-.09-.58-.21-1.04-.37-1.38,0-.01,0-.03,0-.07s.01-.06.01-.07c.45.05.88.08,1.28.08s.8-.03,1.28-.08l.04.14c-.16.32-.29.77-.38,1.35-.09.58-.14,1.14-.14,1.68Z"/>
        <path class="cls-1" d="m59.86,9.36h-.63c-.1-.23-.19-.43-.28-.59-.5.39-1.14.59-1.93.59-1.06,0-1.92-.3-2.56-.9-.65-.6-.97-1.37-.97-2.32s.35-1.78,1.04-2.38c.7-.6,1.65-.9,2.86-.9.61,0,1.2.07,1.76.2.56.14.85.27.85.41l-.31,1.57-.16.04c-.43-.71-1.07-1.07-1.9-1.07-.69,0-1.21.19-1.56.58-.36.39-.53.9-.53,1.54,0,.58.15,1.07.45,1.46.3.39.74.58,1.31.58.47,0,.8-.11.98-.34-.01-.66-.08-1.13-.22-1.41l.04-.14c.35.05.71.08,1.07.08.42,0,.81-.03,1.19-.08l.03.14c-.14.32-.26.78-.36,1.39-.1.61-.15,1.12-.15,1.55Z"/>
        <path class="cls-1" d="m68.53,2.94l.04.14c-.16.36-.29.82-.38,1.38-.09.56-.13,1.11-.13,1.65s.05,1.08.14,1.65.22,1.03.38,1.38l-.04.14c-.33-.05-.67-.08-1.04-.08-.21,0-.42.01-.64.04-.22.03-.35.04-.39.04l-.05-.07h0s-3.08-4.05-3.08-4.05c-.03.27-.04.59-.04.96,0,.54.05,1.09.14,1.67.09.58.22,1.03.38,1.36l-.04.14c-.3-.05-.65-.08-1.05-.08-.37,0-.72.03-1.05.08l-.04-.14c.16-.33.28-.78.38-1.35.09-.58.14-1.14.14-1.68s-.05-1.09-.14-1.67c-.09-.58-.22-1.04-.38-1.36l.04-.14c.33.05.68.08,1.06.08.21,0,.42-.01.66-.04s.37-.04.41-.04l3.08,4.05c.02-.27.04-.57.04-.89,0-.54-.05-1.09-.14-1.67-.09-.58-.22-1.03-.38-1.35l.03-.14c.27.05.6.08,1,.08.48,0,.84-.03,1.1-.08Z"/>
        <path class="cls-1" d="m72.59,8.01c-.36,0-.7.03-1.03.08-.05.18-.08.35-.08.5,0,.25.06.43.18.55l-.03.14c-.38-.05-.74-.08-1.08-.08s-.66.03-1.01.08l-.03-.14s.08-.09.12-.14.08-.1.13-.18c.05-.07.09-.14.13-.19.04-.05.09-.14.16-.26.07-.12.13-.22.18-.3s.13-.22.24-.41c.11-.19.2-.36.28-.49l2.38-4.22h.16l2.44,4.33c.14.23.28.47.42.71.14.25.24.42.3.52s.13.21.2.32c.07.11.14.21.22.3l-.04.14c-.28-.05-.69-.08-1.25-.08-.61,0-1.06.03-1.37.08l-.03-.13c.11-.11.17-.27.17-.5,0-.1-.03-.23-.09-.39-.54-.17-1.1-.25-1.67-.25Zm.22-2.41l-.81,1.56h1.68l-.87-1.56Z"/>
        <path class="cls-1" d="m79,6.11v-.61c0-.66-.03-1.08-.09-1.24s-.22-.24-.47-.24h-.53c-.11,0-.21.01-.32.03s-.2.05-.29.09c-.09.04-.17.08-.23.11-.06.03-.13.07-.21.13-.08.05-.13.09-.16.1l-.14-.06.37-1.56c.89.11,1.85.16,2.87.16.94,0,1.86-.05,2.75-.16l.37,1.56-.13.06-.24-.16c-.16-.11-.3-.19-.43-.23-.13-.05-.28-.07-.46-.07h-.52c-.18,0-.31.03-.38.1s-.12.2-.15.39c-.03.2-.04.53-.04.99v.61c0,.54.04,1.1.14,1.67.09.57.22,1.02.38,1.36l-.04.14c-.47-.05-.89-.08-1.27-.08-.5,0-.93.03-1.28.08l-.04-.14c.16-.33.28-.78.38-1.36.09-.57.14-1.13.14-1.67Z"/>
        <path class="cls-1" d="m90.6,6.78c0,.77-.28,1.39-.84,1.89-.56.49-1.32.74-2.27.74-1.01,0-1.79-.25-2.33-.75s-.81-1.17-.81-2.02v-.7c0-1.07-.17-2.02-.52-2.86l.04-.14c.35.05.78.08,1.28.08.37,0,.75-.03,1.13-.08l.04.14c-.25.68-.37,1.57-.37,2.68v.73c0,.55.13.98.4,1.29.27.3.65.46,1.14.46s.86-.15,1.13-.44c.27-.29.4-.69.4-1.21,0-1.61-.12-2.78-.37-3.51l.04-.14c.47.05.85.08,1.13.08.48,0,.91-.03,1.28-.08l.04.14c-.22.48-.36,1.01-.42,1.6s-.1,1.29-.1,2.1Z"/>
        <path class="cls-1" d="m95.43,7.09l-.42-.56h0l.06-.24c.4,0,.76-.11,1.07-.32.31-.21.46-.54.46-.98,0-.35-.1-.6-.3-.75-.2-.15-.49-.23-.89-.23-.33,0-.54.06-.65.18s-.16.4-.16.83v1.09c0,1.3.17,2.31.52,3.03l-.03.14c-.37-.05-.8-.08-1.29-.08-.1,0-.53.03-1.28.08l-.04-.14c.34-.72.52-1.73.52-3.03s-.17-2.3-.52-3.03l.04-.14c.58.05,1.01.08,1.28.08.24,0,.61-.02,1.11-.06.51-.04.86-.06,1.05-.06.81,0,1.42.18,1.83.54s.62.81.62,1.34c0,.42-.14.78-.42,1.06-.28.29-.64.49-1.09.62l.23.3c.48.68,1.27,1.46,2.36,2.36l-.02.14c-.07-.02-.19-.03-.36-.03-.12,0-.35.02-.69.05-.35.04-.6.05-.75.05-.24,0-.43-.04-.57-.11-.14-.07-.28-.2-.41-.4l-1.28-1.76Z"/>
        <path class="cls-1" d="m104.55,6.89l-.14.06s-.12-.04-.34-.11c-.22-.08-.45-.13-.68-.16-.24-.03-.56-.05-.98-.05,0,.3.02.61.05.94.04.24.14.41.31.5.17.09.4.14.71.14h.67c.57,0,1.11-.14,1.62-.41l.12.1-.61,1.47c-1.04-.11-2.27-.17-3.69-.17-.1,0-.52.03-1.25.08l-.04-.14c.16-.34.29-.79.38-1.37s.14-1.13.14-1.66-.04-1.1-.14-1.67-.22-1.02-.38-1.36l.07-.14c.36.05.83.08,1.41.08,1.22,0,2.29-.05,3.2-.16l.37,1.55-.13.06c-.51-.3-.95-.45-1.32-.45h-.59c-.21,0-.37.02-.48.05s-.2.11-.28.23c-.07.12-.12.28-.13.47-.02.19-.03.47-.03.84v.02c.42-.01.75-.03.99-.07s.47-.08.67-.15c.2-.07.32-.1.35-.11l.13.06c-.03.41-.04.66-.04.76,0,.17.02.42.07.76Z"/>
        <path class="cls-1" d="m44.35,13.66c-.23,0-.45.02-.66.05-.03.12-.05.22-.05.32,0,.16.04.28.12.35l-.02.09c-.24-.03-.47-.05-.69-.05s-.43.02-.65.05l-.02-.09s.05-.06.08-.09c.02-.03.05-.07.08-.11.03-.05.06-.09.08-.12.02-.04.06-.09.1-.17.04-.08.08-.14.11-.19.03-.05.08-.14.15-.26.07-.12.13-.23.18-.31l1.53-2.71h.1l1.57,2.78c.09.15.18.3.27.46.09.16.16.27.19.33.04.06.08.13.13.2.05.07.09.14.14.19l-.02.09c-.18-.03-.45-.05-.8-.05-.39,0-.68.02-.88.05l-.02-.08c.07-.07.11-.18.11-.32,0-.06-.02-.14-.06-.25-.35-.11-.71-.16-1.07-.16Zm.14-1.54l-.52,1h1.08l-.56-1Z"/>
        <path class="cls-1" d="m50.97,14.13c-.12.14-.31.24-.57.3-.27.07-.54.1-.82.1-.68,0-1.21-.19-1.59-.56s-.57-.87-.57-1.48.2-1.15.61-1.54c.41-.39.96-.58,1.67-.58.36,0,.7.04,1.03.13.33.09.49.17.49.26l-.2,1.02-.09.02c-.12-.21-.26-.38-.42-.5-.16-.12-.37-.18-.63-.18-.38,0-.66.12-.85.36s-.29.56-.29.96.09.71.28.93c.19.23.47.34.84.34.41,0,.84-.18,1.29-.55l.08.05c-.03.09-.05.21-.08.35-.03.15-.05.26-.08.36-.03.09-.07.17-.12.23Z"/>
        <path class="cls-1" d="m55.53,14.13c-.12.14-.31.24-.57.3-.27.07-.54.1-.82.1-.68,0-1.21-.19-1.59-.56s-.57-.87-.57-1.48.2-1.15.61-1.54c.41-.39.96-.58,1.67-.58.36,0,.7.04,1.03.13.33.09.49.17.49.26l-.2,1.02-.09.02c-.12-.21-.26-.38-.42-.5-.16-.12-.37-.18-.63-.18-.38,0-.66.12-.85.36s-.29.56-.29.96.09.71.28.93c.19.23.47.34.84.34.41,0,.84-.18,1.29-.55l.08.05c-.03.09-.05.21-.08.35-.03.15-.05.26-.08.36-.03.09-.07.17-.12.23Z"/>
        <path class="cls-1" d="m56.53,12.45c0-.64.21-1.15.63-1.53.42-.38,1.01-.57,1.75-.57s1.32.19,1.74.57c.42.38.63.89.63,1.53s-.21,1.14-.64,1.52c-.43.38-1,.57-1.73.57s-1.34-.19-1.76-.56c-.42-.38-.62-.89-.62-1.54Zm1.28,0c0,.4.09.73.28,1,.19.26.46.39.82.39s.63-.13.81-.38c.18-.25.28-.59.28-1.01s-.09-.75-.28-1.01-.46-.39-.81-.39-.64.13-.82.39-.28.59-.28,1.01Z"/>
        <path class="cls-1" d="m64.7,14.47l-1.47-2.62c-.03.17-.05.37-.06.59-.01.2-.02.4-.02.6,0,.57.06,1.02.17,1.35l-.05.08c-.17-.03-.37-.05-.6-.05-.28,0-.5.02-.66.05v-.08c.25-.59.39-1.24.42-1.95,0-.16.01-.29.01-.38,0-.67-.08-1.19-.23-1.57l.05-.08c.22.03.42.05.6.05.1,0,.24,0,.41-.03.17-.02.27-.03.3-.03l1.37,2.34c.45-.8.82-1.58,1.11-2.34.03,0,.13,0,.3.03s.31.03.43.03c.21,0,.44-.02.68-.05l.04.08c-.14.35-.2.84-.2,1.46,0,.17,0,.33.02.49.05.82.19,1.47.42,1.95v.08c-.22-.03-.49-.05-.81-.05-.22,0-.48.02-.77.05l-.04-.08c.15-.39.22-.94.22-1.64,0-.14,0-.24,0-.31,0-.24-.02-.46-.04-.66l-1.48,2.69h-.13Z"/>
        <path class="cls-1" d="m72.45,11.82c0,.4-.14.73-.42,1-.28.27-.68.4-1.2.4-.03,0-.28-.02-.77-.05.05.5.15.91.28,1.21v.09c-.32-.03-.61-.05-.86-.05-.07,0-.33.02-.8.05l-.02-.09c.1-.22.19-.52.24-.88.06-.36.09-.72.09-1.06s-.03-.72-.09-1.08c-.06-.37-.14-.65-.24-.86l.02-.09c.38.03.64.05.8.05s.4-.01.71-.04c.31-.02.52-.04.63-.04.52,0,.92.14,1.2.41.28.27.42.61.42,1.02Zm-2.43-.42v.63c0,.24.02.39.07.45.05.05.19.08.42.08.25,0,.44-.06.58-.18.14-.12.2-.3.2-.55s-.07-.42-.21-.55c-.14-.13-.33-.19-.58-.19-.2,0-.33.02-.39.06-.06.04-.1.12-.1.25Z"/>
        <path class="cls-1" d="m74.43,13.66c-.23,0-.45.02-.66.05-.03.12-.05.22-.05.32,0,.16.04.28.12.35l-.02.09c-.24-.03-.47-.05-.69-.05s-.43.02-.65.05l-.02-.09s.05-.06.08-.09c.02-.03.05-.07.08-.11.03-.05.06-.09.08-.12.02-.04.06-.09.1-.17.04-.08.08-.14.11-.19.03-.05.08-.14.15-.26.07-.12.13-.23.18-.31l1.53-2.71h.1l1.57,2.78c.09.15.18.3.27.46.09.16.16.27.19.33.04.06.08.13.13.2.05.07.09.14.14.19l-.02.09c-.18-.03-.45-.05-.8-.05-.39,0-.68.02-.88.05l-.02-.08c.07-.07.11-.18.11-.32,0-.06-.02-.14-.06-.25-.35-.11-.71-.16-1.07-.16Zm.14-1.54l-.52,1h1.08l-.56-1Z"/>
        <path class="cls-1" d="m82.21,10.41l.02.09c-.1.23-.19.52-.24.88-.06.36-.09.71-.09,1.06s.03.69.09,1.06c.06.37.14.66.24.88l-.02.09c-.21-.03-.43-.05-.67-.05-.13,0-.27,0-.41.03-.14.02-.23.03-.25.03l-.03-.05h0s-1.97-2.6-1.97-2.6c-.02.17-.03.38-.03.61,0,.34.03.7.09,1.07.06.37.14.66.25.87l-.02.09c-.19-.03-.41-.05-.67-.05-.24,0-.46.02-.67.05l-.02-.09c.1-.21.18-.5.24-.87.06-.37.09-.73.09-1.08s-.03-.7-.09-1.07c-.06-.37-.14-.66-.24-.87l.02-.09c.21.03.43.05.68.05.13,0,.27,0,.42-.03.15-.02.24-.03.26-.03l1.98,2.6c.01-.17.02-.36.02-.57,0-.34-.03-.7-.09-1.07-.06-.37-.14-.66-.24-.87l.02-.09c.17.03.39.05.64.05.31,0,.54-.02.71-.05Z"/>
        <path class="cls-1" d="m84.57,12.44c0,.34.03.7.09,1.07.06.37.14.66.24.87l-.02.09c-.3-.03-.57-.05-.82-.05s-.53.02-.82.05l-.02-.09c.1-.21.18-.49.24-.87.06-.37.09-.73.09-1.08s-.03-.69-.09-1.06c-.06-.38-.14-.67-.23-.88,0,0,0-.02,0-.04,0-.02,0-.04,0-.04.29.03.56.05.82.05s.52-.02.82-.05l.02.09c-.1.21-.19.49-.24.87-.06.37-.09.73-.09,1.08Z"/>
        <path class="cls-1" d="m88.49,14.47l-1.47-2.62c-.03.17-.05.37-.06.59-.01.2-.02.4-.02.6,0,.57.06,1.02.17,1.35l-.05.08c-.17-.03-.37-.05-.6-.05-.28,0-.5.02-.66.05v-.08c.25-.59.39-1.24.42-1.95,0-.16.01-.29.01-.38,0-.67-.08-1.19-.23-1.57l.05-.08c.22.03.42.05.6.05.1,0,.24,0,.41-.03.17-.02.27-.03.3-.03l1.37,2.34c.45-.8.82-1.58,1.11-2.34.03,0,.13,0,.3.03s.31.03.43.03c.21,0,.44-.02.68-.05l.04.08c-.14.35-.2.84-.2,1.46,0,.17,0,.33.02.49.05.82.19,1.47.42,1.95v.08c-.22-.03-.49-.05-.81-.05-.22,0-.48.02-.77.05l-.04-.08c.15-.39.22-.94.22-1.64,0-.14,0-.24,0-.31,0-.24-.02-.46-.04-.66l-1.48,2.69h-.13Z"/>
        <path class="cls-1" d="m95.18,12.94l-.09.04s-.08-.02-.22-.07c-.14-.05-.29-.08-.44-.1-.15-.02-.36-.03-.63-.03,0,.19,0,.39.03.6.02.15.09.26.2.32.11.06.26.09.45.09h.43c.36,0,.71-.09,1.04-.26l.08.06-.39.94c-.67-.07-1.45-.11-2.37-.11-.07,0-.33.02-.8.05l-.02-.09c.1-.22.19-.51.24-.88.06-.37.09-.72.09-1.07s-.03-.7-.09-1.07c-.06-.37-.14-.66-.24-.87l.05-.09c.23.03.53.05.9.05.78,0,1.46-.04,2.05-.1l.24.99-.08.04c-.33-.19-.61-.29-.85-.29h-.38c-.14,0-.24.01-.31.03-.07.02-.13.07-.18.15-.05.08-.08.18-.09.3-.01.12-.02.3-.02.54h0c.27,0,.48-.01.63-.03.16-.02.3-.05.43-.1.13-.04.2-.07.23-.07l.08.04c-.02.26-.03.43-.03.49,0,.11.01.27.05.49Z"/>
        <path class="cls-1" d="m101.14,10.41l.02.09c-.1.23-.19.52-.24.88-.06.36-.09.71-.09,1.06s.03.69.09,1.06c.06.37.14.66.24.88l-.02.09c-.21-.03-.43-.05-.67-.05-.13,0-.27,0-.41.03-.14.02-.23.03-.25.03l-.03-.05h0s-1.97-2.6-1.97-2.6c-.02.17-.03.38-.03.61,0,.34.03.7.09,1.07.06.37.14.66.25.87l-.02.09c-.19-.03-.41-.05-.67-.05-.24,0-.46.02-.67.05l-.02-.09c.1-.21.18-.5.24-.87.06-.37.09-.73.09-1.08s-.03-.7-.09-1.07c-.06-.37-.14-.66-.24-.87l.02-.09c.21.03.43.05.68.05.13,0,.27,0,.42-.03.15-.02.24-.03.26-.03l1.98,2.6c.01-.17.02-.36.02-.57,0-.34-.03-.7-.09-1.07-.06-.37-.14-.66-.24-.87l.02-.09c.17.03.39.05.64.05.31,0,.54-.02.71-.05Z"/>
        <path class="cls-1" d="m103.42,12.44v-.39c0-.43-.02-.69-.06-.79-.04-.1-.14-.16-.3-.16h-.34c-.07,0-.14,0-.2.02-.07.01-.13.03-.19.06-.06.03-.11.05-.14.07-.04.02-.08.05-.13.08-.05.03-.09.06-.1.06l-.09-.04.24-1c.57.07,1.18.1,1.84.1.6,0,1.19-.04,1.76-.1l.24,1-.08.04-.15-.1c-.1-.07-.19-.12-.28-.15-.08-.03-.18-.04-.29-.04h-.33c-.12,0-.2.02-.24.06-.05.04-.08.13-.1.25-.02.13-.03.34-.03.64v.39c0,.35.03.71.09,1.07.06.37.14.66.24.87l-.02.09c-.3-.03-.57-.05-.81-.05-.32,0-.59.02-.82.05l-.02-.09c.1-.21.18-.5.24-.87.06-.37.09-.73.09-1.07Z"/>
        <path class="cls-1" d="m45.92,19.44l-.08-.06c-.44.29-.9.44-1.4.44-.6,0-1.05-.12-1.37-.35-.31-.24-.47-.57-.47-1.01,0-.25.09-.49.28-.71s.4-.4.66-.52l-.1-.17c-.05-.11-.08-.24-.08-.39,0-.33.17-.59.52-.79.35-.2.74-.3,1.19-.3.28,0,.57.04.87.12.3.08.45.16.43.23l-.18.72-.1.03c-.26-.33-.56-.49-.9-.49-.17,0-.32.04-.44.12-.12.08-.18.18-.2.3-.01.08,0,.17.04.26.04.09.08.15.12.2.04.04.09.1.17.18.37.38.8.76,1.29,1.17.16-.17.24-.33.24-.49,0-.18-.13-.27-.39-.27-.05,0-.13,0-.21.03l-.04-.06.15-.55c.1,0,.25.01.46.01h.6c.38,0,.68-.02.9-.06l.05.09-.33.64c-.11-.03-.24-.05-.39-.06h-.25v.04c.14.03.21.12.2.28-.02.29-.19.56-.5.81.42.34.78.59,1.08.75l-.03.13c-.55,0-1.01.04-1.38.13l-.41-.35Zm-.63-.49c-.53-.42-.97-.82-1.33-1.18-.19.12-.29.26-.29.43,0,.29.1.51.3.65s.45.22.75.22c.21,0,.4-.04.57-.12Z"/>
        <path class="cls-1" d="m53.83,19.33c-.12.14-.31.24-.57.3-.27.07-.54.1-.82.1-.68,0-1.21-.19-1.59-.56s-.57-.87-.57-1.48.2-1.15.61-1.54c.41-.39.96-.58,1.67-.58.36,0,.7.04,1.03.13.33.09.49.17.49.26l-.2,1.02-.09.02c-.12-.21-.26-.38-.42-.5-.16-.12-.37-.18-.63-.18-.38,0-.66.12-.85.36s-.29.56-.29.96.09.71.28.93c.19.23.47.34.84.34.41,0,.84-.18,1.29-.55l.08.05c-.03.09-.05.21-.08.35-.03.15-.05.26-.08.36-.03.09-.07.17-.12.23Z"/>
        <path class="cls-1" d="m54.83,17.65c0-.64.21-1.15.63-1.53.42-.38,1.01-.57,1.75-.57s1.32.19,1.74.57c.42.38.63.89.63,1.53s-.21,1.14-.64,1.52c-.43.38-1,.57-1.73.57s-1.34-.19-1.76-.56c-.42-.38-.62-.89-.62-1.54Zm1.28,0c0,.4.09.73.28,1,.19.26.46.39.82.39s.63-.13.81-.38c.18-.25.28-.59.28-1.01s-.09-.75-.28-1.01-.46-.39-.81-.39-.64.13-.82.39-.28.59-.28,1.01Z"/>
        <path class="cls-1" d="m64.84,15.61l.02.09c-.1.23-.19.52-.24.88-.06.36-.09.71-.09,1.06s.03.69.09,1.06c.06.37.14.66.24.88l-.02.09c-.21-.03-.43-.05-.67-.05-.13,0-.27,0-.41.03-.14.02-.23.03-.25.03l-.03-.05h0s-1.97-2.6-1.97-2.6c-.02.17-.03.38-.03.61,0,.34.03.7.09,1.07.06.37.14.66.25.87l-.02.09c-.19-.03-.41-.05-.67-.05-.24,0-.46.02-.67.05l-.02-.09c.1-.21.18-.5.24-.87.06-.37.09-.73.09-1.08s-.03-.7-.09-1.07c-.06-.37-.14-.66-.24-.87l.02-.09c.21.03.43.05.68.05.13,0,.27,0,.42-.03.15-.02.24-.03.26-.03l1.98,2.6c.01-.17.02-.36.02-.57,0-.34-.03-.7-.09-1.07-.06-.37-.14-.66-.24-.87l.02-.09c.17.03.39.05.64.05.31,0,.54-.02.71-.05Z"/>
        <path class="cls-1" d="m69.25,19.33c-.12.14-.31.24-.57.3-.27.07-.54.1-.82.1-.68,0-1.21-.19-1.59-.56s-.57-.87-.57-1.48.2-1.15.61-1.54c.41-.39.96-.58,1.67-.58.36,0,.7.04,1.03.13.33.09.49.17.49.26l-.2,1.02-.09.02c-.12-.21-.26-.38-.42-.5-.16-.12-.37-.18-.63-.18-.38,0-.66.12-.85.36s-.29.56-.29.96.09.71.28.93c.19.23.47.34.84.34.41,0,.84-.18,1.29-.55l.08.05c-.03.09-.05.21-.08.35-.03.15-.05.26-.08.36-.03.09-.07.17-.12.23Z"/>
        <path class="cls-1" d="m73.08,18.14l-.09.04s-.08-.02-.22-.07c-.14-.05-.29-.08-.44-.1-.15-.02-.36-.03-.63-.03,0,.19,0,.39.03.6.02.15.09.26.2.32.11.06.26.09.45.09h.43c.36,0,.71-.09,1.04-.26l.08.06-.39.94c-.67-.07-1.45-.11-2.37-.11-.07,0-.33.02-.8.05l-.02-.09c.1-.22.19-.51.24-.88.06-.37.09-.72.09-1.07s-.03-.7-.09-1.07c-.06-.37-.14-.66-.24-.87l.05-.09c.23.03.53.05.9.05.78,0,1.46-.04,2.05-.1l.24.99-.08.04c-.33-.19-.61-.29-.85-.29h-.38c-.14,0-.24.01-.31.03-.07.02-.13.07-.18.15-.05.08-.08.18-.09.3s-.02.3-.02.54h0c.27,0,.48-.01.63-.03.16-.02.3-.05.43-.1.13-.04.2-.07.23-.07l.08.04c-.02.26-.03.43-.03.49,0,.11.01.27.05.49Z"/>
        <path class="cls-1" d="m78.41,17.01c0,.4-.14.73-.42,1-.28.27-.68.4-1.2.4-.03,0-.28-.02-.77-.05.05.5.15.91.28,1.21v.09c-.32-.03-.61-.05-.86-.05-.07,0-.33.02-.8.05l-.02-.09c.1-.22.19-.52.24-.88.06-.36.09-.72.09-1.06s-.03-.72-.09-1.08c-.06-.37-.14-.65-.24-.86l.02-.09c.38.03.64.05.8.05s.4-.01.71-.04c.31-.02.52-.04.63-.04.52,0,.92.14,1.2.41.28.27.42.61.42,1.02Zm-2.43-.42v.63c0,.24.02.39.07.45.05.05.19.08.42.08.25,0,.44-.06.58-.18.14-.12.2-.3.2-.55s-.07-.42-.21-.55c-.14-.13-.33-.19-.58-.19-.2,0-.33.02-.39.06-.06.04-.1.12-.1.25Z"/>
        <path class="cls-1" d="m80.47,17.64v-.39c0-.43-.02-.69-.06-.79-.04-.1-.14-.16-.3-.16h-.34c-.07,0-.14,0-.2.02-.07.01-.13.03-.19.06-.06.03-.11.05-.14.07-.04.02-.08.05-.13.08-.05.03-.09.06-.1.06l-.09-.04.24-1c.57.07,1.18.1,1.84.1.6,0,1.19-.04,1.76-.1l.24,1-.08.04-.15-.1c-.1-.07-.19-.12-.28-.15-.08-.03-.18-.04-.29-.04h-.33c-.12,0-.2.02-.24.06-.05.04-.08.13-.1.25-.02.13-.03.34-.03.64v.39c0,.35.03.71.09,1.07.06.37.14.66.24.87l-.02.09c-.3-.03-.57-.05-.81-.05-.32,0-.59.02-.82.05l-.02-.09c.1-.21.18-.5.24-.87.06-.37.09-.73.09-1.07Z"/>
        <path class="cls-1" d="m83.77,18.31c.25.48.73.72,1.42.72.2,0,.37-.03.51-.1.14-.06.21-.15.21-.26,0-.17-.1-.3-.31-.4-.08-.03-.29-.1-.61-.2-.54-.15-.9-.31-1.08-.48-.18-.17-.28-.43-.28-.78,0-.42.15-.73.45-.95.3-.21.7-.32,1.19-.32.37,0,.72.04,1.05.12.33.08.49.17.49.27l-.2.98h-.1c-.22-.46-.61-.7-1.15-.7-.51,0-.76.12-.76.35,0,.11.08.21.23.29.15.08.38.16.67.25.57.16.95.32,1.15.5.2.17.3.44.3.79,0,.3-.09.55-.27.75-.18.2-.41.35-.68.44-.27.09-.58.13-.93.13-.39,0-.75-.04-1.09-.12-.33-.08-.5-.18-.5-.28l.17-.99h.1Z"/>
      </g>
    </g>
  </g>
</svg>